<mxfile host="app.diagrams.net" modified="2022-02-12T10:12:59.523Z" agent="5.0 (Windows NT 10.0; Win64; x64) AppleWebKit/537.36 (KHTML, like Gecko) Chrome/97.0.4692.99 Safari/537.36" etag="LkDJDbOdwcZqsLDjxp9t" version="16.5.6" type="github">
  <diagram id="UAw1TIddpeawf7ThEO2-" name="Page-1">
    <mxGraphModel dx="1564" dy="950" grid="1" gridSize="10" guides="1" tooltips="1" connect="1" arrows="1" fold="1" page="1" pageScale="1" pageWidth="827" pageHeight="1169" math="0" shadow="0">
      <root>
        <mxCell id="0" />
        <mxCell id="1" parent="0" />
        <mxCell id="5DToGPZOA1wdT7OZ3vj3-1" value="start" style="rounded=1;whiteSpace=wrap;html=1;fillColor=#ffe6cc;strokeColor=#d79b00;" parent="1" vertex="1">
          <mxGeometry x="393" y="100" width="120" height="60" as="geometry" />
        </mxCell>
        <mxCell id="5DToGPZOA1wdT7OZ3vj3-2" value="input array" style="shape=parallelogram;perimeter=parallelogramPerimeter;whiteSpace=wrap;html=1;fixedSize=1;fillColor=#dae8fc;strokeColor=#6c8ebf;" parent="1" vertex="1">
          <mxGeometry x="393" y="181" width="120" height="60" as="geometry" />
        </mxCell>
        <mxCell id="5DToGPZOA1wdT7OZ3vj3-3" value="Set i to 0" style="rounded=0;whiteSpace=wrap;html=1;fillColor=#d5e8d4;strokeColor=#82b366;" parent="1" vertex="1">
          <mxGeometry x="393" y="343" width="120" height="60" as="geometry" />
        </mxCell>
        <mxCell id="5DToGPZOA1wdT7OZ3vj3-4" value="Set COUNTER to 0" style="rounded=0;whiteSpace=wrap;html=1;fillColor=#d5e8d4;strokeColor=#82b366;" parent="1" vertex="1">
          <mxGeometry x="393" y="265" width="120" height="60" as="geometry" />
        </mxCell>
        <mxCell id="5DToGPZOA1wdT7OZ3vj3-5" value="" style="endArrow=classic;html=1;rounded=0;exitX=0.5;exitY=1;exitDx=0;exitDy=0;entryX=0.5;entryY=0;entryDx=0;entryDy=0;" parent="1" source="5DToGPZOA1wdT7OZ3vj3-1" target="5DToGPZOA1wdT7OZ3vj3-2" edge="1">
          <mxGeometry width="50" height="50" relative="1" as="geometry">
            <mxPoint x="452" y="462" as="sourcePoint" />
            <mxPoint x="502" y="412" as="targetPoint" />
          </mxGeometry>
        </mxCell>
        <mxCell id="5DToGPZOA1wdT7OZ3vj3-6" value="" style="endArrow=classic;html=1;rounded=0;exitX=0.5;exitY=1;exitDx=0;exitDy=0;entryX=0.5;entryY=0;entryDx=0;entryDy=0;" parent="1" source="5DToGPZOA1wdT7OZ3vj3-2" target="5DToGPZOA1wdT7OZ3vj3-4" edge="1">
          <mxGeometry width="50" height="50" relative="1" as="geometry">
            <mxPoint x="465.0000000000002" y="174" as="sourcePoint" />
            <mxPoint x="465.0000000000002" y="197" as="targetPoint" />
          </mxGeometry>
        </mxCell>
        <mxCell id="5DToGPZOA1wdT7OZ3vj3-7" value="Is i &amp;lt; array.length-1?" style="rhombus;whiteSpace=wrap;html=1;fillColor=#e1d5e7;strokeColor=#9673a6;" parent="1" vertex="1">
          <mxGeometry x="397.5" y="421" width="111" height="111" as="geometry" />
        </mxCell>
        <mxCell id="5DToGPZOA1wdT7OZ3vj3-8" value="" style="endArrow=classic;html=1;rounded=0;entryX=0.5;entryY=0;entryDx=0;entryDy=0;" parent="1" source="5DToGPZOA1wdT7OZ3vj3-3" target="5DToGPZOA1wdT7OZ3vj3-7" edge="1">
          <mxGeometry width="50" height="50" relative="1" as="geometry">
            <mxPoint x="452.5" y="406" as="sourcePoint" />
            <mxPoint x="453" y="447" as="targetPoint" />
          </mxGeometry>
        </mxCell>
        <mxCell id="5DToGPZOA1wdT7OZ3vj3-9" value="" style="endArrow=classic;html=1;rounded=0;exitX=1;exitY=0.5;exitDx=0;exitDy=0;entryX=0;entryY=0.5;entryDx=0;entryDy=0;" parent="1" source="5DToGPZOA1wdT7OZ3vj3-7" target="5DToGPZOA1wdT7OZ3vj3-10" edge="1">
          <mxGeometry width="50" height="50" relative="1" as="geometry">
            <mxPoint x="348" y="416" as="sourcePoint" />
            <mxPoint x="552" y="477" as="targetPoint" />
          </mxGeometry>
        </mxCell>
        <mxCell id="5DToGPZOA1wdT7OZ3vj3-10" value="output COUNTER" style="shape=parallelogram;perimeter=parallelogramPerimeter;whiteSpace=wrap;html=1;fixedSize=1;fillColor=#dae8fc;strokeColor=#6c8ebf;" parent="1" vertex="1">
          <mxGeometry x="554" y="446.5" width="120" height="60" as="geometry" />
        </mxCell>
        <mxCell id="5DToGPZOA1wdT7OZ3vj3-11" value="No" style="text;html=1;strokeColor=none;fillColor=none;align=center;verticalAlign=middle;whiteSpace=wrap;rounded=0;" parent="1" vertex="1">
          <mxGeometry x="503" y="446.5" width="60" height="30" as="geometry" />
        </mxCell>
        <mxCell id="5DToGPZOA1wdT7OZ3vj3-12" value="" style="endArrow=classic;html=1;rounded=0;exitX=0.5;exitY=1;exitDx=0;exitDy=0;entryX=0.5;entryY=0;entryDx=0;entryDy=0;" parent="1" source="5DToGPZOA1wdT7OZ3vj3-7" target="5DToGPZOA1wdT7OZ3vj3-13" edge="1">
          <mxGeometry width="50" height="50" relative="1" as="geometry">
            <mxPoint x="348" y="416" as="sourcePoint" />
            <mxPoint x="328" y="537.3333740234375" as="targetPoint" />
          </mxGeometry>
        </mxCell>
        <mxCell id="5DToGPZOA1wdT7OZ3vj3-13" value="Is array[i+1]&amp;gt;array[i]?" style="rhombus;whiteSpace=wrap;html=1;fillColor=#e1d5e7;strokeColor=#9673a6;" parent="1" vertex="1">
          <mxGeometry x="397.5" y="574" width="111" height="111" as="geometry" />
        </mxCell>
        <mxCell id="5DToGPZOA1wdT7OZ3vj3-14" value="Yes" style="text;html=1;strokeColor=none;fillColor=none;align=center;verticalAlign=middle;whiteSpace=wrap;rounded=0;" parent="1" vertex="1">
          <mxGeometry x="409" y="539" width="60" height="30" as="geometry" />
        </mxCell>
        <mxCell id="5DToGPZOA1wdT7OZ3vj3-15" value="" style="endArrow=classic;html=1;rounded=0;exitX=0.5;exitY=1;exitDx=0;exitDy=0;entryX=0.5;entryY=1;entryDx=0;entryDy=0;" parent="1" source="5DToGPZOA1wdT7OZ3vj3-13" target="5DToGPZOA1wdT7OZ3vj3-16" edge="1">
          <mxGeometry width="50" height="50" relative="1" as="geometry">
            <mxPoint x="473" y="423" as="sourcePoint" />
            <mxPoint x="325" y="630" as="targetPoint" />
            <Array as="points">
              <mxPoint x="140" y="680" />
            </Array>
          </mxGeometry>
        </mxCell>
        <mxCell id="5DToGPZOA1wdT7OZ3vj3-16" value="COUNTER++" style="rounded=0;whiteSpace=wrap;html=1;fillColor=#d5e8d4;strokeColor=#82b366;" parent="1" vertex="1">
          <mxGeometry x="80" y="446.5" width="120" height="60" as="geometry" />
        </mxCell>
        <mxCell id="5DToGPZOA1wdT7OZ3vj3-18" value="" style="endArrow=classic;html=1;rounded=0;exitX=0.5;exitY=1;exitDx=0;exitDy=0;entryX=0.5;entryY=0;entryDx=0;entryDy=0;" parent="1" source="5DToGPZOA1wdT7OZ3vj3-4" target="5DToGPZOA1wdT7OZ3vj3-3" edge="1">
          <mxGeometry width="50" height="50" relative="1" as="geometry">
            <mxPoint x="463" y="251" as="sourcePoint" />
            <mxPoint x="463" y="275" as="targetPoint" />
          </mxGeometry>
        </mxCell>
        <mxCell id="5DToGPZOA1wdT7OZ3vj3-19" value="Yes" style="text;html=1;strokeColor=none;fillColor=none;align=center;verticalAlign=middle;whiteSpace=wrap;rounded=0;" parent="1" vertex="1">
          <mxGeometry x="279" y="659" width="60" height="30" as="geometry" />
        </mxCell>
        <mxCell id="5DToGPZOA1wdT7OZ3vj3-20" value="No" style="text;html=1;strokeColor=none;fillColor=none;align=center;verticalAlign=middle;whiteSpace=wrap;rounded=0;" parent="1" vertex="1">
          <mxGeometry x="320" y="600" width="60" height="30" as="geometry" />
        </mxCell>
        <mxCell id="G9Vs-o_uSjpCWa04YNtC-1" value="i++" style="rounded=0;whiteSpace=wrap;html=1;fillColor=#d5e8d4;strokeColor=#82b366;" parent="1" vertex="1">
          <mxGeometry x="249" y="446.5" width="120" height="60" as="geometry" />
        </mxCell>
        <mxCell id="G9Vs-o_uSjpCWa04YNtC-2" value="" style="endArrow=classic;html=1;rounded=0;entryX=0.5;entryY=1;entryDx=0;entryDy=0;exitX=0;exitY=0.5;exitDx=0;exitDy=0;" parent="1" source="5DToGPZOA1wdT7OZ3vj3-13" target="G9Vs-o_uSjpCWa04YNtC-1" edge="1">
          <mxGeometry width="50" height="50" relative="1" as="geometry">
            <mxPoint x="319.44" y="600" as="sourcePoint" />
            <mxPoint x="319.44" y="530" as="targetPoint" />
            <Array as="points">
              <mxPoint x="309" y="630" />
            </Array>
          </mxGeometry>
        </mxCell>
        <mxCell id="G9Vs-o_uSjpCWa04YNtC-3" value="" style="endArrow=classic;html=1;rounded=0;exitX=1;exitY=0.5;exitDx=0;exitDy=0;entryX=0;entryY=0.5;entryDx=0;entryDy=0;" parent="1" source="5DToGPZOA1wdT7OZ3vj3-16" target="G9Vs-o_uSjpCWa04YNtC-1" edge="1">
          <mxGeometry width="50" height="50" relative="1" as="geometry">
            <mxPoint x="270" y="560" as="sourcePoint" />
            <mxPoint x="320" y="510" as="targetPoint" />
          </mxGeometry>
        </mxCell>
        <mxCell id="G9Vs-o_uSjpCWa04YNtC-5" value="" style="endArrow=classic;html=1;rounded=0;exitX=1;exitY=0.5;exitDx=0;exitDy=0;" parent="1" source="G9Vs-o_uSjpCWa04YNtC-1" target="5DToGPZOA1wdT7OZ3vj3-7" edge="1">
          <mxGeometry width="50" height="50" relative="1" as="geometry">
            <mxPoint x="210" y="486.5" as="sourcePoint" />
            <mxPoint x="259" y="486.5" as="targetPoint" />
          </mxGeometry>
        </mxCell>
      </root>
    </mxGraphModel>
  </diagram>
</mxfile>
